<?xml version="1.0" encoding="UTF-8"?>
<svg version="1.1" xmlns="http://www.w3.org/2000/svg" width="500" height="500">
<path d="M0 0 C165 0 330 0 500 0 C500 165 500 330 500 500 C335 500 170 500 0 500 C0 335 0 170 0 0 Z " fill="#0A192F" transform="translate(0,0)"/>
<path d="M0 0 C3.58552881 1.63687185 4.79315055 2.68972583 7 6 C7.39387788 8.32387947 7.73486085 10.65793749 8 13 C8.58394531 12.22076172 8.58394531 12.22076172 9.1796875 11.42578125 C14.02697818 5.38342121 19.03618393 0.86306602 26.95019531 -0.28222656 C36.02682575 -1.11421618 44.53223763 -0.79221027 52 5 C55.17919161 8.04589217 57.56441087 11.3466163 60 15 C60.47566406 14.23816406 60.47566406 14.23816406 60.9609375 13.4609375 C65.27274011 7.1004331 70.81508421 2.41875805 78.35546875 0.35546875 C87.02780361 -0.81023653 97.11084291 -1.31411423 105 3 C107.8125 5.375 107.8125 5.375 110 8 C110.70125 8.763125 111.4025 9.52625 112.125 10.3125 C118.36829929 19.26122898 118.16268503 29.55781287 118.203125 40.06640625 C118.20882507 41.21866196 118.21452515 42.37091766 118.22039795 43.55809021 C118.22981471 45.98622732 118.23636866 48.41437701 118.24023438 50.8425293 C118.24997624 54.55344755 118.28104639 58.26382003 118.3125 61.97460938 C118.31902734 64.33853839 118.32427887 66.70247135 118.328125 69.06640625 C118.3404718 70.17278946 118.3528186 71.27917267 118.36553955 72.41908264 C118.34945448 77.98276279 118.30924138 82.27701271 115 87 C110.55223754 89.96517497 106.21478117 89.76239491 101 89 C97.58688333 86.47429367 96.33362232 85.00086696 95 81 C94.89933958 79.30392872 94.85436291 77.60428622 94.84228516 75.90527344 C94.83202301 74.86699402 94.82176086 73.8287146 94.81118774 72.75897217 C94.80388641 71.6371051 94.79658508 70.51523804 94.7890625 69.359375 C94.7609898 66.98567024 94.73232531 64.61197241 94.703125 62.23828125 C94.66189429 58.49463118 94.62500782 54.75111009 94.59863281 51.00732422 C94.57097589 47.39523516 94.52509839 43.78373587 94.4765625 40.171875 C94.47330963 39.05810486 94.47005676 37.94433472 94.46670532 36.79681396 C94.37177732 30.77508928 93.95993827 26.29444836 91 21 C87.97751728 18.16069805 85.20508723 17.7403158 81.1875 17.5 C75.89062312 17.6894561 71.70193732 19.12024037 68 23 C63.87951868 29.69614444 63.44798189 34.9625524 63.53125 42.7265625 C63.52420044 43.83301117 63.51715088 44.93945984 63.5098877 46.07943726 C63.48793276 49.594863 63.49084261 53.10952607 63.5 56.625 C63.51204623 61.26343153 63.49835359 65.90073039 63.46875 70.5390625 C63.48572937 72.12831039 63.48572937 72.12831039 63.50305176 73.74966431 C63.46165638 79.79847253 63.09240761 83.41844861 59 88 C55.04352612 89.97823694 50.3017582 89.56487734 46 89 C42.58688333 86.47429367 41.33362232 85.00086696 40 81 C39.89933958 79.30392872 39.85436291 77.60428622 39.84228516 75.90527344 C39.83202301 74.86699402 39.82176086 73.8287146 39.81118774 72.75897217 C39.80388641 71.6371051 39.79658508 70.51523804 39.7890625 69.359375 C39.7609898 66.98567024 39.73232531 64.61197241 39.703125 62.23828125 C39.66189429 58.49463118 39.62500782 54.75111009 39.59863281 51.00732422 C39.57097589 47.39523516 39.52509839 43.78373587 39.4765625 40.171875 C39.47330963 39.05810486 39.47005676 37.94433472 39.46670532 36.79681396 C39.37177732 30.77508928 38.95993827 26.29444836 36 21 C32.97751728 18.16069805 30.20508723 17.7403158 26.1875 17.5 C20.67247828 17.71369682 16.95835221 19.14111789 13 23 C8.99775155 29.89504446 8.44299858 36.67726451 8.53125 44.484375 C8.52420044 45.54360168 8.51715088 46.60282837 8.5098877 47.69415283 C8.48800415 51.04635313 8.49082634 54.3977499 8.5 57.75 C8.51205406 62.18272107 8.49835774 66.61425792 8.46875 71.046875 C8.48006958 72.05635193 8.49138916 73.06582886 8.50305176 74.105896 C8.46043986 80.04143043 7.97726042 83.48712529 4 88 C0.07232406 89.96383797 -4.71773499 89.47510337 -9 89 C-11.65563802 87.1031157 -12.57242527 85.85514945 -14 83 C-14.11352237 80.58556936 -14.16778918 78.19928614 -14.17700195 75.78393555 C-14.18357315 75.04065002 -14.19014435 74.2973645 -14.19691467 73.53155518 C-14.216659 71.06660872 -14.22831283 68.60172322 -14.23828125 66.13671875 C-14.24235678 65.29528635 -14.2464323 64.45385395 -14.25063133 63.5869236 C-14.27149707 59.13322825 -14.2857965 54.67956375 -14.29516602 50.22583008 C-14.30623069 45.62556601 -14.34062952 41.02578563 -14.38033772 36.42569256 C-14.40648354 32.88862712 -14.41485603 29.35167727 -14.41844749 25.8145237 C-14.42331886 24.11885118 -14.43494855 22.42318401 -14.45348549 20.72760582 C-14.47783423 18.35276351 -14.47692027 15.97917697 -14.4699707 13.60424805 C-14.48278076 12.90535965 -14.49559082 12.20647125 -14.50878906 11.48640442 C-14.45813091 6.73070946 -13.35549491 4.34205719 -10 1 C-6.80876226 -0.59561887 -3.47254909 -0.3799142 0 0 Z " fill="#FAFAFA" transform="translate(54,220)"/>
<path d="M0 0 C3.79041795 0.79272361 5.5781777 2.68814127 8.22265625 5.46484375 C9.70254417 8.42461959 9.35276024 11.42462384 9.33618164 14.66845703 C9.33632767 15.41002045 9.33647369 16.15158386 9.33662415 16.9156189 C9.33592625 19.37216088 9.32813959 21.82862748 9.3203125 24.28515625 C9.31844788 25.98623615 9.31702419 27.68731659 9.31602478 29.38839722 C9.31220303 33.86990842 9.30237565 38.35138732 9.2913208 42.83288574 C9.28109933 47.40421105 9.27652558 51.97554156 9.27148438 56.546875 C9.2607531 65.51954546 9.24368076 74.49219192 9.22265625 83.46484375 C9.97466309 83.4488916 10.72666992 83.43293945 11.50146484 83.41650391 C12.98380615 83.39789307 12.98380615 83.39789307 14.49609375 83.37890625 C15.47497559 83.3629541 16.45385742 83.34700195 17.46240234 83.33056641 C20.98700938 83.50202704 23.32290382 84.48080261 26.22265625 86.46484375 C27.43262304 88.88477733 27.49348896 90.63950705 27.59765625 93.33984375 C27.64664063 94.20351563 27.695625 95.0671875 27.74609375 95.95703125 C27.22265625 98.46484375 27.22265625 98.46484375 25.125 100.76953125 C21.59612314 102.83081329 19.46405995 102.87863784 15.41015625 102.71484375 C14.24871094 102.67875 13.08726562 102.64265625 11.890625 102.60546875 C11.01019531 102.5590625 10.12976563 102.51265625 9.22265625 102.46484375 C9.27486328 104.20121094 9.27486328 104.20121094 9.328125 105.97265625 C9.35627832 107.51170415 9.38357681 109.05076786 9.41015625 110.58984375 C9.43529297 111.35039062 9.46042969 112.1109375 9.48632812 112.89453125 C9.55000943 117.81921904 9.06985724 121.25482521 6.22265625 125.46484375 C2.10536756 128.42655246 -2.92118244 128.11704664 -7.77734375 127.46484375 C-11.33414547 125.35979784 -12.47203311 124.38077567 -13.77734375 120.46484375 C-13.85756374 119.05659482 -13.88500352 117.64487144 -13.875 116.234375 C-13.87177734 115.43193359 -13.86855469 114.62949219 -13.86523438 113.80273438 C-13.85266602 112.55266602 -13.85266602 112.55266602 -13.83984375 111.27734375 C-13.83533203 110.43236328 -13.83082031 109.58738281 -13.82617188 108.71679688 C-13.81439778 106.6327822 -13.79646265 104.54880398 -13.77734375 102.46484375 C-14.3926445 102.4737262 -15.00794525 102.48260864 -15.64189148 102.49176025 C-22.04949651 102.58029646 -28.4569276 102.64060419 -34.86499023 102.68457031 C-37.25601256 102.70467793 -39.64698576 102.73196805 -42.0378418 102.76660156 C-45.47587206 102.81515526 -48.91325179 102.83782149 -52.3515625 102.85546875 C-53.95338631 102.88643646 -53.95338631 102.88643646 -55.58757019 102.91802979 C-63.02166852 102.92027432 -63.02166852 102.92027432 -66.92895508 100.56542969 C-69.45018684 97.70019681 -70.3330192 95.54246138 -70.22265625 91.671875 C-68.14304255 81.36501761 -58.40837924 71.08172838 -52.44921875 62.66796875 C-49.0483795 57.86406074 -45.71425978 53.0178326 -42.40234375 48.15234375 C-37.45607314 40.90021228 -32.47322409 33.67422942 -27.46484375 26.46484375 C-26.81918457 25.53373779 -26.17352539 24.60263184 -25.50830078 23.64331055 C-23.60725327 20.91052432 -21.69411936 18.18661666 -19.77734375 15.46484375 C-19.08979004 14.47742188 -18.40223633 13.49 -17.69384766 12.47265625 C-17.00597168 11.50070313 -16.3180957 10.52875 -15.609375 9.52734375 C-14.99425049 8.65207031 -14.37912598 7.77679688 -13.74536133 6.875 C-9.6085507 1.80880541 -6.45723904 -0.26950079 0 0 Z " fill="#FBD600" transform="translate(344.77734375,181.53515625)"/>
<path d="M0 0 C6.37625091 5.621511 10.36390903 12.62750913 11.37173462 21.13970947 C11.50936371 24.66817177 11.52852128 28.17603516 11.49609375 31.70703125 C11.49754898 32.99059006 11.49900421 34.27414886 11.50050354 35.59660339 C11.50187766 38.29370027 11.48948938 40.99025889 11.46655273 43.68725586 C11.43802642 47.13495267 11.44095678 50.58176685 11.45364285 54.02953053 C11.46227968 57.33878947 11.44715874 60.64778724 11.43359375 63.95703125 C11.43652939 65.19040726 11.43946503 66.42378326 11.44248962 67.6945343 C11.42980545 68.8431041 11.41712128 69.99167389 11.40405273 71.17504883 C11.39864975 72.18191238 11.39324677 73.18877594 11.38768005 74.22615051 C10.93453578 77.46839625 9.91609435 79.36682094 8 82 C4.29203067 83.85398466 0.04769751 83.44537772 -4 83 C-6.96994429 81.29228203 -7.71089881 79.97655691 -8.671875 76.73046875 C-9.19327406 74.49338493 -9.63188123 72.26683662 -10 70 C-10.53625 70.886875 -11.0725 71.77375 -11.625 72.6875 C-15.60674334 78.59050411 -20.98617846 82.55040254 -28 84 C-38.27098622 85.01594797 -47.21208539 84.0932918 -55.76171875 78.046875 C-62.26570207 72.61581155 -66.30960657 67.55252591 -67.3671875 59.046875 C-67.69105332 51.46460464 -66.4655168 46.15089756 -61.59765625 40.3203125 C-53.83723972 32.69271484 -41.74831219 30.85436554 -31.2890625 30.90234375 C-30.04511719 30.90556641 -28.80117188 30.90878906 -27.51953125 30.91210938 C-26.23433594 30.92048828 -24.94914062 30.92886719 -23.625 30.9375 C-22.31660156 30.94201172 -21.00820313 30.94652344 -19.66015625 30.95117188 C-16.44005719 30.96292406 -13.2200523 30.97935457 -10 31 C-10.30904171 28.72869344 -10.62234907 26.45796695 -10.9375 24.1875 C-11.11152344 22.92292969 -11.28554688 21.65835938 -11.46484375 20.35546875 C-11.90392455 17.01678297 -11.90392455 17.01678297 -13 14 C-17.89323961 11.72923099 -22.70326977 11.58008472 -28 11.5625 C-28.8343457 11.55790771 -29.66869141 11.55331543 -30.52832031 11.54858398 C-37.39915854 11.67029071 -42.64086852 13.14960651 -48.921875 16.00390625 C-52.70123675 17.22692306 -55.16682567 16.93051696 -59 16 C-61.72459919 13.10511336 -61.99160593 11.47006799 -62.0625 7.5 C-60.76264934 3.21813901 -58.61364668 1.39375959 -55 -1 C-52.41677102 -2.14590114 -50.12128762 -3.03737473 -47.4375 -3.8125 C-46.35178711 -4.12876343 -46.35178711 -4.12876343 -45.24414062 -4.45141602 C-31.351175 -8.07879535 -12.31598568 -8.44524732 0 0 Z " fill="#FAFBFB" transform="translate(450,226)"/>
<path d="M0 0 C1.7421875 1.18359375 1.7421875 1.18359375 3.7421875 3.18359375 C4.35884265 7.05971184 3.91567907 9.46569775 1.6796875 12.62109375 C-1.2578125 15.18359375 -1.2578125 15.18359375 -4.4453125 15.30859375 C-8.37082541 14.15024568 -12.07690142 12.75101837 -15.828125 11.12109375 C-22.24430634 8.64539677 -30.07701499 7.82146295 -36.6796875 9.97265625 C-40.30493349 11.7058943 -41.97557731 12.76024097 -44.2578125 16.18359375 C-44.82856859 19.93427665 -44.59961564 21.6392406 -42.5703125 24.87109375 C-38.17620506 28.73445225 -31.80902761 29.14536649 -26.2578125 30.18359375 C-3.56454064 34.58603984 -3.56454064 34.58603984 4.0546875 44.05859375 C7.25397923 50.10460221 6.82900237 58.17073885 5.08203125 64.62109375 C4.14787897 66.69159578 3.10951046 68.37138064 1.7421875 70.18359375 C1.04802734 71.10398437 1.04802734 71.10398437 0.33984375 72.04296875 C-5.66813342 78.91762233 -15.14208463 82.66780337 -24.17089844 83.32226562 C-38.46811586 83.97886904 -53.52876177 83.33225332 -65.2578125 74.18359375 C-67.73820157 70.46301015 -67.72118453 68.58562804 -67.2578125 64.18359375 C-65.6328125 61.74609375 -65.6328125 61.74609375 -63.2578125 60.18359375 C-58.6080381 59.7656365 -55.57366242 60.65906455 -51.3828125 62.62109375 C-46.63226745 64.68199197 -42.45350596 66.04922237 -37.2578125 66.18359375 C-36.13890625 66.23386719 -35.02 66.28414063 -33.8671875 66.3359375 C-25.15421405 66.58417793 -25.15421405 66.58417793 -17.2578125 63.18359375 C-14.76944285 59.45103927 -14.71554698 57.5991844 -15.2578125 53.18359375 C-18.77156351 49.68070877 -21.76860454 48.52275019 -26.58984375 47.62109375 C-27.80091797 47.38132812 -29.01199219 47.1415625 -30.25976562 46.89453125 C-31.51724609 46.65992188 -32.77472656 46.4253125 -34.0703125 46.18359375 C-54.22031734 42.38918001 -54.22031734 42.38918001 -60.1328125 35.24609375 C-60.68710938 34.59769531 -61.24140625 33.94929688 -61.8125 33.28125 C-65.92884349 27.30698932 -65.99826676 21.22247995 -65.2578125 14.18359375 C-63.5982285 8.71145192 -60.54062209 4.94410949 -56.2578125 1.18359375 C-55.5565625 0.50296875 -54.8553125 -0.17765625 -54.1328125 -0.87890625 C-38.79244017 -11.21698326 -15.46063404 -9.08949364 0 0 Z " fill="#FAFAFA" transform="translate(257.2578125,226.81640625)"/>
<path d="M0 0 C0.33 0 0.66 0 1 0 C1 15.18 1 30.36 1 46 C-9.56 46 -20.12 46 -31 46 C-23.11804009 33.614063 -23.11804009 33.614063 -19.3359375 28.046875 C-18.93597565 27.45755188 -18.53601379 26.86822876 -18.12393188 26.26104736 C-17.29301791 25.03744659 -16.46134551 23.81436049 -15.62890625 22.59179688 C-14.36789447 20.73956306 -13.10955073 18.88553831 -11.8515625 17.03125 C-3.08329442 4.11918385 -3.08329442 4.11918385 0 0 Z " fill="#0B1A2E" transform="translate(330,219)"/>
<path d="M0 0 C1.06541016 0.00902344 2.13082031 0.01804687 3.22851562 0.02734375 C5.84008034 0.05076586 8.45116937 0.08356548 11.0625 0.125 C11.12034546 1.7013833 11.16130466 3.27839111 11.1953125 4.85546875 C11.21996582 5.73356201 11.24461914 6.61165527 11.27001953 7.51635742 C10.81480154 13.23871531 7.11868408 17.40396393 2.9375 21.0625 C-1.24148184 24.06046523 -4.27385668 24.30581954 -9.3125 24.375 C-10.43398438 24.40078125 -11.55546875 24.4265625 -12.7109375 24.453125 C-16.28402138 24.08976054 -18.08661615 23.26696069 -20.9375 21.125 C-24.15208317 16.35854909 -24.64515866 12.69781195 -23.9375 7.125 C-18.08900634 -1.0274457 -9.06933395 -0.14637038 0 0 Z " fill="#0C1B31" transform="translate(428.9375,269.875)"/>
</svg>
